# Blender v2.80 (sub 75) OBJ File: 'Wall1.blend'
# www.blender.org
mtllib COCO.mtl
o Plane.012_Plane.019
v -0.500000 -0.500000 0.000000
v 0.500000 -0.500000 0.000000
v -0.500000 0.500000 0.000000
v 0.500000 0.500000 0.000000
v -0.500000 0.166667 0.000000
v -0.500000 -0.166667 0.000000
v -0.222222 -0.500000 0.166667
v 0.222222 -0.500000 0.166667
v 0.500000 -0.166667 0.000000
v 0.500000 0.166667 0.000000
v 0.222222 0.500000 0.166667
v -0.222222 0.500000 0.166667
v -0.222222 -0.166667 0.166667
v -0.222222 0.166667 0.166667
v 0.222222 -0.166667 0.166667
v 0.222222 0.166667 0.166667
v -0.111111 -0.500000 0.833333
v 0.111111 -0.500000 0.833333
v 0.111111 0.500000 0.833333
v -0.111111 0.500000 0.833333
v -0.111111 0.166667 0.833333
v -0.111111 -0.166667 0.833333
v 0.111111 0.166667 0.833333
v 0.111111 -0.166667 0.833333
v -0.500000 -0.333333 0.000000
v 0.340278 -0.500000 0.020833
v 0.500000 0.333333 0.000000
v -0.340278 0.500000 0.020833
v -0.500000 0.333333 0.000000
v -0.500000 0.000000 0.000000
v -0.340278 -0.500000 0.020833
v 0.500000 -0.333333 0.000000
v 0.500000 0.000000 0.000000
v 0.340278 0.500000 0.020833
v -0.222222 0.333333 0.166667
v -0.222222 -0.333333 0.166667
v -0.222222 -0.000000 0.166667
v 0.222222 0.333333 0.166667
v 0.222222 -0.333333 0.166667
v 0.222222 -0.000000 0.166667
v -0.340278 -0.166667 0.020833
v -0.340278 0.166667 0.020833
v -0.166667 -0.500000 0.500000
v 0.166667 -0.500000 0.500000
v 0.340278 -0.166667 0.020833
v 0.340278 0.166667 0.020833
v -0.000000 -0.500000 0.958333
v -0.000000 0.500000 0.958333
v -0.111111 0.333333 0.833333
v -0.111111 -0.333333 0.833333
v -0.111111 -0.000000 0.833333
v 0.111111 0.333333 0.833333
v 0.111111 -0.333333 0.833333
v 0.111111 -0.000000 0.833333
v 0.000000 -0.166667 0.958333
v 0.000000 0.166667 0.958333
v 0.166667 -0.166667 0.500000
v -0.166667 -0.166667 0.500000
v -0.166667 0.166667 0.500000
v -0.166667 0.500000 0.500000
v 0.166667 0.166667 0.500000
v 0.166667 0.500000 0.500000
v 0.340278 0.333333 0.020833
v -0.340278 0.333333 0.020833
v -0.166667 -0.000000 0.500000
v -0.340278 -0.333333 0.020833
v -0.340278 0.000000 0.020833
v 0.166667 -0.333333 0.500000
v 0.340278 -0.333333 0.020833
v 0.340278 0.000000 0.020833
v -0.000000 0.333333 0.958333
v -0.000000 -0.333333 0.958333
v -0.000000 0.000000 0.958333
v -0.166667 0.333333 0.500000
v 0.166667 0.000000 0.500000
v 0.166667 0.333333 0.500000
v -0.166667 -0.333333 0.500000
vt 0.722222 0.666667
vt 0.840278 0.833333
vt 0.722222 0.833333
vt 0.840278 0.666667
vt 1.000000 0.833333
vt 0.840278 1.000000
vt 0.722222 1.000000
vt 0.159722 0.666667
vt 0.000000 0.833333
vt 0.000000 0.666667
vt 0.277778 0.666667
vt 0.159722 0.833333
vt 0.277778 0.833333
vt 0.159722 1.000000
vt 0.000000 1.000000
vt 0.277778 0.500000
vt 0.333333 0.666667
vt 0.333333 0.333333
vt 0.333333 0.500000
vt 0.388889 0.333333
vt 0.388889 0.500000
vt 0.388889 0.666667
vt 0.159722 0.000000
vt 0.000000 0.166667
vt 0.000000 0.000000
vt 0.277778 0.000000
vt 0.159722 0.166667
vt 0.277778 0.333333
vt 0.159722 0.333333
vt 0.000000 0.333333
vt 0.159722 0.500000
vt 0.000000 0.500000
vt 0.722222 0.166667
vt 0.666667 0.000000
vt 0.722222 0.000000
vt 0.722222 0.333333
vt 0.666667 0.166667
vt 0.666667 0.333333
vt 0.611111 0.166667
vt 0.611111 0.000000
vt 0.840278 0.000000
vt 1.000000 0.166667
vt 0.840278 0.166667
vt 0.840278 0.333333
vt 0.840278 0.500000
vt 0.722222 0.500000
vt 1.000000 0.333333
vt 1.000000 0.500000
vt 0.500000 0.666667
vt 0.388889 0.833333
vt 0.611111 0.666667
vt 0.500000 0.833333
vt 0.611111 0.833333
vt 0.500000 1.000000
vt 0.388889 1.000000
vt 0.500000 0.000000
vt 0.388889 0.166667
vt 0.388889 0.000000
vt 0.500000 0.166667
vt 0.500000 0.333333
vt 0.611111 0.500000
vt 0.500000 0.500000
vt 0.277778 1.000000
vt 0.333333 0.833333
vt 0.333333 1.000000
vt 0.666667 0.666667
vt 0.666667 0.500000
vt 0.611111 0.333333
vt 0.666667 0.833333
vt 0.666667 1.000000
vt 0.333333 0.166667
vt 0.277778 0.166667
vt 0.333333 0.000000
vt 1.000000 0.666667
vt 1.000000 1.000000
vt 1.000000 0.000000
vt 0.611111 1.000000
vn 0.7772 0.0000 0.6292
vn 0.1293 0.0000 0.9916
vn -0.1293 0.0000 0.9916
vn -0.7772 0.0000 0.6292
vn -0.9864 0.0000 0.1644
vn 0.9864 0.0000 0.1644
vn -0.7474 -0.0000 0.6644
vn 0.7474 0.0000 0.6644
usemtl None
s off
f 16/1/1 63/2/1 38/3/1
f 46/4/2 27/5/2 63/2/2
f 27/5/2 34/6/2 63/2/2
f 63/2/1 11/7/1 38/3/1
f 42/8/3 29/9/3 5/10/3
f 14/11/4 64/12/4 42/8/4
f 35/13/4 28/14/4 64/12/4
f 64/12/3 3/15/3 29/9/3
f 37/16/5 59/17/5 14/11/5
f 37/16/5 58/18/5 65/19/5
f 65/19/5 22/20/5 51/21/5
f 65/19/5 21/22/5 59/17/5
f 31/23/3 25/24/3 1/25/3
f 7/26/4 66/27/4 31/23/4
f 66/27/4 13/28/4 41/29/4
f 66/27/3 6/30/3 25/24/3
f 6/30/3 67/31/3 30/32/3
f 13/28/4 67/31/4 41/29/4
f 67/31/4 14/11/4 42/8/4
f 30/32/3 42/8/3 5/10/3
f 39/33/6 44/34/6 8/35/6
f 15/36/6 68/37/6 39/33/6
f 57/38/6 53/39/6 68/37/6
f 44/34/6 53/39/6 18/40/6
f 26/41/1 39/33/1 8/35/1
f 26/41/2 32/42/2 69/43/2
f 32/42/2 45/44/2 69/43/2
f 69/43/1 15/36/1 39/33/1
f 15/36/1 70/45/1 40/46/1
f 9/47/2 70/45/2 45/44/2
f 33/48/2 46/4/2 70/45/2
f 70/45/1 16/1/1 40/46/1
f 56/49/7 49/50/7 21/22/7
f 23/51/8 71/52/8 56/49/8
f 52/53/8 48/54/8 71/52/8
f 49/50/7 48/54/7 20/55/7
f 47/56/7 50/57/7 17/58/7
f 18/40/8 72/59/8 47/56/8
f 53/39/8 55/60/8 72/59/8
f 50/57/7 55/60/7 22/20/7
f 55/60/7 51/21/7 22/20/7
f 55/60/8 54/61/8 73/62/8
f 54/61/8 56/49/8 73/62/8
f 51/21/7 56/49/7 21/22/7
f 12/63/5 74/64/5 60/65/5
f 14/11/5 74/64/5 35/13/5
f 59/17/5 49/50/5 74/64/5
f 74/64/5 20/55/5 60/65/5
f 40/46/6 57/38/6 15/36/6
f 40/46/6 61/66/6 75/67/6
f 75/67/6 23/51/6 54/61/6
f 75/67/6 24/68/6 57/38/6
f 38/3/6 61/66/6 16/1/6
f 11/7/6 76/69/6 38/3/6
f 62/70/6 52/53/6 76/69/6
f 76/69/6 23/51/6 61/66/6
f 13/28/5 77/71/5 58/18/5
f 36/72/5 43/73/5 77/71/5
f 43/73/5 50/57/5 77/71/5
f 77/71/5 22/20/5 58/18/5
f 16/1/1 46/4/1 63/2/1
f 46/4/2 10/74/2 27/5/2
f 27/5/2 4/75/2 34/6/2
f 63/2/1 34/6/1 11/7/1
f 42/8/3 64/12/3 29/9/3
f 14/11/4 35/13/4 64/12/4
f 35/13/4 12/63/4 28/14/4
f 64/12/3 28/14/3 3/15/3
f 37/16/5 65/19/5 59/17/5
f 37/16/5 13/28/5 58/18/5
f 65/19/5 58/18/5 22/20/5
f 65/19/5 51/21/5 21/22/5
f 31/23/3 66/27/3 25/24/3
f 7/26/4 36/72/4 66/27/4
f 66/27/4 36/72/4 13/28/4
f 66/27/3 41/29/3 6/30/3
f 6/30/3 41/29/3 67/31/3
f 13/28/4 37/16/4 67/31/4
f 67/31/4 37/16/4 14/11/4
f 30/32/3 67/31/3 42/8/3
f 39/33/6 68/37/6 44/34/6
f 15/36/6 57/38/6 68/37/6
f 57/38/6 24/68/6 53/39/6
f 44/34/6 68/37/6 53/39/6
f 26/41/1 69/43/1 39/33/1
f 26/41/2 2/76/2 32/42/2
f 32/42/2 9/47/2 45/44/2
f 69/43/1 45/44/1 15/36/1
f 15/36/1 45/44/1 70/45/1
f 9/47/2 33/48/2 70/45/2
f 33/48/2 10/74/2 46/4/2
f 70/45/1 46/4/1 16/1/1
f 56/49/7 71/52/7 49/50/7
f 23/51/8 52/53/8 71/52/8
f 52/53/8 19/77/8 48/54/8
f 49/50/7 71/52/7 48/54/7
f 47/56/7 72/59/7 50/57/7
f 18/40/8 53/39/8 72/59/8
f 53/39/8 24/68/8 55/60/8
f 50/57/7 72/59/7 55/60/7
f 55/60/7 73/62/7 51/21/7
f 55/60/8 24/68/8 54/61/8
f 54/61/8 23/51/8 56/49/8
f 51/21/7 73/62/7 56/49/7
f 12/63/5 35/13/5 74/64/5
f 14/11/5 59/17/5 74/64/5
f 59/17/5 21/22/5 49/50/5
f 74/64/5 49/50/5 20/55/5
f 40/46/6 75/67/6 57/38/6
f 40/46/6 16/1/6 61/66/6
f 75/67/6 61/66/6 23/51/6
f 75/67/6 54/61/6 24/68/6
f 38/3/6 76/69/6 61/66/6
f 11/7/6 62/70/6 76/69/6
f 62/70/6 19/77/6 52/53/6
f 76/69/6 52/53/6 23/51/6
f 13/28/5 36/72/5 77/71/5
f 36/72/5 7/26/5 43/73/5
f 43/73/5 17/58/5 50/57/5
f 77/71/5 50/57/5 22/20/5
