# Blender v2.80 (sub 75) OBJ File: 'Wall1.blend'
# www.blender.org
mtllib EndPiece.mtl
o Plane.010_Plane.016
v -0.500000 -0.500000 0.000000
v 0.500000 -0.500000 0.000000
v -0.500000 0.500000 0.000000
v 0.500000 0.500000 0.000000
v -0.500000 0.166667 0.000000
v -0.500000 -0.166667 0.000000
v -0.166667 -0.500000 0.000000
v 0.166667 -0.500000 0.000000
v 0.500000 -0.166667 0.000000
v 0.500000 0.166667 0.000000
v 0.222222 0.500000 0.166667
v -0.222222 0.500000 0.166667
v -0.166667 -0.166667 0.120000
v -0.222222 0.166667 0.166667
v 0.166667 -0.166667 0.120000
v 0.222222 0.166667 0.166667
v 0.111111 0.500000 0.833333
v -0.111111 0.500000 0.833333
v -0.111111 0.166667 0.833333
v -0.083333 -0.083333 0.750000
v 0.111111 0.166667 0.833333
v 0.083333 -0.083333 0.750000
v -0.500000 -0.333333 0.000000
v 0.333333 -0.500000 0.000000
v 0.500000 0.333333 0.000000
v -0.340278 0.500000 0.020833
v -0.500000 0.333333 0.000000
v -0.500000 0.000000 0.000000
v -0.333333 -0.500000 0.000000
v 0.000000 -0.500000 0.000000
v 0.500000 -0.333333 0.000000
v 0.500000 0.000000 0.000000
v 0.340278 0.500000 0.020833
v -0.222222 0.333333 0.166667
v -0.166667 -0.334491 0.012361
v -0.216435 0.001157 0.161667
v 0.222222 0.333333 0.166667
v 0.166667 -0.334491 0.012361
v 0.216435 0.001157 0.161667
v -0.334491 -0.166667 0.012361
v -0.340278 0.166667 0.020833
v -0.000000 -0.210648 0.156667
v 0.112140 -0.112140 0.484198
v 0.334491 -0.166667 0.012361
v 0.340278 0.166667 0.020833
v -0.000000 0.500000 0.958333
v -0.111111 0.333333 0.833333
v -0.106353 0.010545 0.819059
v 0.111111 0.333333 0.833333
v 0.106353 0.010545 0.819059
v 0.000000 -0.101595 0.804784
v 0.000000 0.166667 0.958333
v -0.112140 -0.112140 0.484198
v -0.166667 0.166667 0.500000
v -0.166667 0.500000 0.500000
v 0.166667 0.166667 0.500000
v 0.166667 0.500000 0.500000
v 0.340278 0.333333 0.020833
v -0.340278 0.333333 0.020833
v -0.159979 0.006687 0.496049
v -0.333333 -0.333333 0.002222
v -0.339120 -0.000000 0.019583
v -0.000000 -0.337963 0.018333
v -0.000000 -0.153292 0.492099
v 0.333333 -0.333333 0.002222
v 0.339120 -0.000000 0.019583
v -0.000000 0.333333 0.958333
v 0.000000 0.008745 0.939043
v -0.166667 0.333333 0.500000
v 0.159979 0.006687 0.496049
v 0.166667 0.333333 0.500000
vt 0.722222 0.666667
vt 0.840278 0.833333
vt 0.722222 0.833333
vt 0.840278 0.666667
vt 1.000000 0.833333
vt 0.840278 1.000000
vt 0.722222 1.000000
vt 0.159722 0.666667
vt 0.000000 0.833333
vt 0.000000 0.666667
vt 0.277778 0.666667
vt 0.159722 0.833333
vt 0.277778 0.833333
vt 0.159722 1.000000
vt 0.000000 1.000000
vt 0.340021 0.506687
vt 0.333333 0.666667
vt 0.283565 0.501157
vt 0.387860 0.387860
vt 0.416667 0.416667
vt 0.393647 0.510545
vt 0.388889 0.666667
vt 0.166667 0.000000
vt 0.000000 0.166667
vt 0.000000 0.000000
vt 0.333333 0.165509
vt 0.166667 0.166667
vt 0.165509 0.333333
vt 0.000000 0.333333
vt 0.160880 0.500000
vt 0.000000 0.500000
vt 0.333333 0.000000
vt 0.500000 0.162037
vt 0.666667 0.000000
vt 0.500000 0.000000
vt 0.666667 0.165509
vt 0.500000 0.289352
vt 0.333333 0.333333
vt 0.612140 0.387860
vt 0.500000 0.346708
vt 0.583333 0.416667
vt 0.500000 0.398405
vt 0.833333 0.000000
vt 1.000000 0.166667
vt 0.833333 0.166667
vt 0.834491 0.333333
vt 0.666667 0.333333
vt 0.716435 0.501157
vt 1.000000 0.333333
vt 0.839120 0.500000
vt 1.000000 0.500000
vt 0.500000 0.666667
vt 0.388889 0.833333
vt 0.611111 0.666667
vt 0.500000 0.833333
vt 0.611111 0.833333
vt 0.500000 1.000000
vt 0.388889 1.000000
vt 0.606353 0.510545
vt 0.500000 0.508745
vt 0.277778 1.000000
vt 0.333333 0.833333
vt 0.333333 1.000000
vt 0.659979 0.506687
vt 0.666667 0.666667
vt 0.666667 0.833333
vt 0.666667 1.000000
vt 1.000000 0.666667
vt 1.000000 1.000000
vt 1.000000 0.000000
vt 0.611111 1.000000
vn 0.7772 0.0000 0.6292
vn 0.1293 0.0000 0.9916
vn -0.1293 0.0000 0.9916
vn -0.7772 0.0000 0.6292
vn -0.9854 -0.0452 0.1642
vn -0.9101 -0.3823 0.1600
vn -0.9259 -0.3431 0.1578
vn -0.9854 -0.0450 0.1642
vn 0.0000 0.0000 1.0000
vn -0.0608 -0.0133 0.9981
vn -0.0610 -0.0610 0.9963
vn -0.0745 0.0000 0.9972
vn -0.1208 0.0000 0.9927
vn -0.7558 -0.0493 0.6530
vn -0.7568 -0.0102 0.6536
vn -0.0373 -0.0744 0.9965
vn 0.0000 -0.1124 0.9937
vn 0.0396 -0.7352 0.6767
vn -0.3114 -0.5130 0.7999
vn -0.2884 -0.9397 0.1839
vn 0.3500 -0.9234 0.1579
vn 0.3077 -0.9387 0.1552
vn -0.3498 -0.9266 0.1383
vn 0.0000 -0.0745 0.9972
vn 0.0133 -0.0133 0.9998
vn 0.0133 -0.0608 0.9981
vn 0.4751 -0.4751 0.7407
vn 0.5065 -0.3463 0.7897
vn 0.0744 -0.0452 0.9962
vn 0.1208 -0.0083 0.9926
vn 0.7764 -0.0461 0.6285
vn -0.7474 -0.0000 0.6644
vn 0.7474 0.0000 0.6644
vn -0.5318 -0.5826 0.6147
vn 0.5893 -0.6242 0.5130
vn 0.7450 -0.0809 0.6622
vn -0.7464 -0.0831 0.6603
vn -0.9864 0.0000 0.1644
vn 0.9282 -0.3217 0.1871
vn 0.9852 -0.0395 0.1670
vn 0.9854 -0.0452 0.1641
vn 0.9135 -0.3818 0.1404
vn 0.9864 0.0000 0.1644
vn -0.9852 -0.0395 0.1670
vn -0.9282 -0.3217 0.1871
vn -0.9135 -0.3818 0.1404
vn -0.9854 -0.0452 0.1641
vn -0.0133 -0.0133 0.9998
vn -0.4751 -0.4751 0.7407
vn -0.0133 -0.0608 0.9981
vn -0.0744 -0.0452 0.9962
vn -0.5065 -0.3463 0.7897
vn -0.7764 -0.0461 0.6285
vn -0.1208 -0.0083 0.9926
vn 0.0373 -0.0744 0.9965
vn 0.3114 -0.5130 0.7999
vn -0.0396 -0.7352 0.6767
vn -0.3500 -0.9234 0.1579
vn 0.2884 -0.9397 0.1839
vn 0.3498 -0.9266 0.1383
vn -0.3077 -0.9387 0.1552
vn 0.0608 -0.0133 0.9981
vn 0.0745 0.0000 0.9972
vn 0.0610 -0.0610 0.9963
vn 0.7558 -0.0493 0.6530
vn 0.1208 0.0000 0.9927
vn 0.7568 -0.0102 0.6536
vn -0.5893 -0.6242 0.5130
vn 0.5318 -0.5826 0.6147
vn 0.7464 -0.0831 0.6603
vn -0.7450 -0.0809 0.6622
vn 0.9101 -0.3823 0.1600
vn 0.9854 -0.0452 0.1642
vn 0.9854 -0.0450 0.1642
vn 0.9259 -0.3431 0.1578
usemtl None
s off
f 16/1/1 58/2/1 37/3/1
f 45/4/2 25/5/2 58/2/2
f 25/5/2 33/6/2 58/2/2
f 58/2/1 11/7/1 37/3/1
f 41/8/3 27/9/3 5/10/3
f 14/11/4 59/12/4 41/8/4
f 34/13/4 26/14/4 59/12/4
f 59/12/3 3/15/3 27/9/3
f 14/11/5 60/16/5 54/17/5
f 36/18/6 53/19/6 60/16/6
f 60/16/7 20/20/7 48/21/7
f 54/17/8 48/21/8 19/22/8
f 29/23/9 23/24/9 1/25/9
f 29/23/10 35/26/10 61/27/10
f 35/26/11 40/28/11 61/27/11
f 23/24/12 40/28/12 6/29/12
f 6/29/13 62/30/13 28/31/13
f 40/28/14 36/18/14 62/30/14
f 36/18/15 41/8/15 62/30/15
f 28/31/3 41/8/3 5/10/3
f 7/32/16 63/33/16 35/26/16
f 8/34/17 63/33/17 30/35/17
f 38/36/18 42/37/18 63/33/18
f 35/26/19 42/37/19 13/38/19
f 42/37/20 53/19/20 13/38/20
f 42/37/21 43/39/21 64/40/21
f 64/40/22 22/41/22 51/42/22
f 64/40/23 20/20/23 53/19/23
f 24/43/24 38/36/24 8/34/24
f 24/43/25 31/44/25 65/45/25
f 31/44/26 44/46/26 65/45/26
f 38/36/27 44/46/27 15/47/27
f 44/46/28 39/48/28 15/47/28
f 9/49/29 66/50/29 44/46/29
f 32/51/30 45/4/30 66/50/30
f 39/48/31 45/4/31 16/1/31
f 52/52/32 47/53/32 19/22/32
f 21/54/33 67/55/33 52/52/33
f 49/56/33 46/57/33 67/55/33
f 47/53/32 46/57/32 18/58/32
f 51/42/34 48/21/34 20/20/34
f 51/42/35 50/59/35 68/60/35
f 68/60/36 21/54/36 52/52/36
f 68/60/37 19/22/37 48/21/37
f 12/61/38 69/62/38 55/63/38
f 14/11/38 69/62/38 34/13/38
f 54/17/38 47/53/38 69/62/38
f 69/62/38 18/58/38 55/63/38
f 39/48/39 43/39/39 15/47/39
f 16/1/40 70/64/40 39/48/40
f 56/65/41 50/59/41 70/64/41
f 70/64/42 22/41/42 43/39/42
f 16/1/43 71/66/43 56/65/43
f 11/7/43 71/66/43 37/3/43
f 57/67/43 49/56/43 71/66/43
f 71/66/43 21/54/43 56/65/43
f 16/1/1 45/4/1 58/2/1
f 45/4/2 10/68/2 25/5/2
f 25/5/2 4/69/2 33/6/2
f 58/2/1 33/6/1 11/7/1
f 41/8/3 59/12/3 27/9/3
f 14/11/4 34/13/4 59/12/4
f 34/13/4 12/61/4 26/14/4
f 59/12/3 26/14/3 3/15/3
f 14/11/44 36/18/44 60/16/44
f 36/18/45 13/38/45 53/19/45
f 60/16/46 53/19/46 20/20/46
f 54/17/47 60/16/47 48/21/47
f 29/23/48 61/27/48 23/24/48
f 29/23/24 7/32/24 35/26/24
f 35/26/49 13/38/49 40/28/49
f 23/24/50 61/27/50 40/28/50
f 6/29/51 40/28/51 62/30/51
f 40/28/52 13/38/52 36/18/52
f 36/18/53 14/11/53 41/8/53
f 28/31/54 62/30/54 41/8/54
f 7/32/17 30/35/17 63/33/17
f 8/34/55 38/36/55 63/33/55
f 38/36/56 15/47/56 42/37/56
f 35/26/57 63/33/57 42/37/57
f 42/37/58 64/40/58 53/19/58
f 42/37/59 15/47/59 43/39/59
f 64/40/60 43/39/60 22/41/60
f 64/40/61 51/42/61 20/20/61
f 24/43/62 65/45/62 38/36/62
f 24/43/9 2/70/9 31/44/9
f 31/44/63 9/49/63 44/46/63
f 38/36/64 65/45/64 44/46/64
f 44/46/65 66/50/65 39/48/65
f 9/49/66 32/51/66 66/50/66
f 32/51/2 10/68/2 45/4/2
f 39/48/67 66/50/67 45/4/67
f 52/52/32 67/55/32 47/53/32
f 21/54/33 49/56/33 67/55/33
f 49/56/33 17/71/33 46/57/33
f 47/53/32 67/55/32 46/57/32
f 51/42/68 68/60/68 48/21/68
f 51/42/69 22/41/69 50/59/69
f 68/60/70 50/59/70 21/54/70
f 68/60/71 52/52/71 19/22/71
f 12/61/38 34/13/38 69/62/38
f 14/11/38 54/17/38 69/62/38
f 54/17/38 19/22/38 47/53/38
f 69/62/38 47/53/38 18/58/38
f 39/48/72 70/64/72 43/39/72
f 16/1/73 56/65/73 70/64/73
f 56/65/74 21/54/74 50/59/74
f 70/64/75 50/59/75 22/41/75
f 16/1/43 37/3/43 71/66/43
f 11/7/43 57/67/43 71/66/43
f 57/67/43 17/71/43 49/56/43
f 71/66/43 49/56/43 21/54/43
