# Blender v2.82 (sub 7) OBJ File: ''
# www.blender.org
o Cube_Cube.001
v 0.500000 -0.500000 0.000000
v 0.500000 -0.500000 1.000000
v -0.500000 -0.500000 0.000000
v -0.500000 -0.500000 1.000000
v 0.500000 0.500000 0.000000
v 0.500000 0.500000 1.000000
v -0.500000 0.500000 0.000000
v -0.500000 0.500000 1.000000
vt 0.700771 0.196395
vt 0.689854 0.319230
vt 0.700771 0.196395
vt 0.768124 0.536020
vt 0.778751 0.286246
vt 0.768124 0.536020
vt 0.760742 0.341797
vt 0.760742 0.591797
vt 0.760742 0.341797
vt 0.739258 0.331055
vt 0.739258 0.581055
vt 0.739258 0.331055
vt 0.784180 0.407227
vt 0.784180 0.657227
vt 0.784180 0.407227
vt 0.755548 0.336941
vt 0.750312 0.586887
vt 0.755548 0.336941
vt 0.689854 0.319230
vt 0.778751 0.286246
vt 0.760742 0.591797
vt 0.739258 0.581055
vt 0.784180 0.657227
vt 0.750312 0.586887
vn 0.0000 -1.0000 0.0000
vn -1.0000 0.0000 0.0000
vn 0.0000 1.0000 0.0000
vn 1.0000 0.0000 0.0000
vn 0.0000 0.0000 -1.0000
vn 0.0000 0.0000 1.0000
s off
f 2/1/1 3/2/1 1/3/1
f 4/4/2 7/5/2 3/6/2
f 8/7/3 5/8/3 7/9/3
f 6/10/4 1/11/4 5/12/4
f 7/13/5 1/14/5 3/15/5
f 4/16/6 6/17/6 8/18/6
f 2/1/1 4/19/1 3/2/1
f 4/4/2 8/20/2 7/5/2
f 8/7/3 6/21/3 5/8/3
f 6/10/4 2/22/4 1/11/4
f 7/13/5 5/23/5 1/14/5
f 4/16/6 2/24/6 6/17/6
