# Blender v2.82 (sub 7) OBJ File: 'modelpastingboard.blend'
# www.blender.org
o DevCornerOut_Plane.017
v 0.000000 -0.000000 1.500000
v 0.500000 -0.000000 1.500000
v 0.000000 0.500000 1.500000
v 0.500000 0.500000 1.500000
v 0.485115 0.485115 1.500000
v 0.485115 0.014885 1.500000
v 0.014885 0.014885 1.500000
v 0.014885 0.485115 1.500000
v 0.500000 -0.500000 -0.000000
v 0.000000 -0.500000 -0.000000
v 0.500000 0.000000 0.000000
v 0.000000 0.000000 0.000000
v 0.485115 -0.014885 -0.000000
v 0.485115 -0.485115 -0.000000
v 0.014885 -0.485115 -0.000000
v 0.014885 -0.014885 -0.000000
v -0.500000 -0.500000 -0.000000
v 0.000000 -0.500000 -0.000000
v -0.500000 0.000000 0.000000
v 0.000000 0.000000 0.000000
v -0.014885 -0.014885 -0.000000
v -0.014885 -0.485115 -0.000000
v -0.485115 -0.485115 -0.000000
v -0.485115 -0.014885 -0.000000
v -0.500000 0.000000 0.000000
v 0.000000 0.000000 0.000000
v -0.500000 0.500000 0.000000
v 0.000000 0.500000 0.000000
v -0.014885 0.485115 0.000000
v -0.014885 0.014885 0.000000
v -0.485115 0.014885 0.000000
v -0.485115 0.485115 0.000000
v 0.000000 0.500000 1.500000
v 0.000000 0.500000 0.000000
v 0.000000 0.000000 1.500000
v 0.000000 0.000000 0.000000
v 0.000000 0.500000 1.000000
v 0.000000 0.000000 1.000000
v 0.000000 0.500000 0.500000
v 0.000000 0.000000 0.500000
v 0.000000 0.014885 0.485115
v 0.000000 0.014885 0.014885
v 0.000000 0.485115 0.014885
v 0.000000 0.485115 0.485115
v 0.000000 0.014885 1.485115
v 0.000000 0.014885 1.014885
v 0.000000 0.485115 1.014885
v 0.000000 0.485115 1.485115
v 0.000000 0.014885 0.985115
v 0.000000 0.014885 0.514885
v 0.000000 0.485115 0.514885
v 0.000000 0.485115 0.985115
v 0.500000 0.000000 1.500000
v 0.500000 0.000000 0.000000
v 0.000000 0.000000 1.500000
v 0.500000 0.000000 1.000000
v 0.000000 0.000000 0.000000
v 0.000000 0.000000 1.000000
v 0.500000 0.000000 0.500000
v 0.000000 0.000000 0.500000
v 0.485115 0.000000 1.485115
v 0.485115 0.000000 1.014885
v 0.014885 0.000000 1.014885
v 0.014885 0.000000 1.485115
v 0.485115 -0.000000 0.485115
v 0.485115 0.000000 0.014885
v 0.014885 0.000000 0.014885
v 0.014885 -0.000000 0.485115
v 0.485115 0.000000 0.985115
v 0.485115 0.000000 0.514885
v 0.014885 0.000000 0.514885
v 0.014885 0.000000 0.985115
vt 0.822441 0.289173
vt 0.822441 0.289173
vt 0.822441 0.289173
vt 0.825541 0.238792
vt 0.825541 0.238792
vt 0.825541 0.238792
vt 0.825541 0.238792
vt 0.825541 0.238792
vt 0.825541 0.238792
vt 0.825541 0.238792
vt 0.825541 0.238792
vt 0.822441 0.289173
vt 0.822441 0.289173
vt 0.822441 0.289173
vt 0.822441 0.289173
vt 0.825541 0.238792
vt 0.825541 0.238792
vt 0.825541 0.238792
vt 0.825541 0.238792
vt 0.825541 0.238792
vt 0.825541 0.238792
vt 0.825541 0.238792
vt 0.825541 0.238792
vt 0.822441 0.289173
vt 0.822441 0.289173
vt 0.822441 0.289173
vt 0.825541 0.238792
vt 0.825541 0.238792
vt 0.825541 0.238792
vt 0.825541 0.238792
vt 0.825541 0.238792
vt 0.825541 0.238792
vt 0.825541 0.238792
vt 0.825541 0.238792
vt 0.822441 0.289173
vt 0.822441 0.289173
vt 0.822441 0.289173
vt 0.822441 0.289173
vt 0.822441 0.289173
vt 0.825541 0.238792
vt 0.825541 0.238792
vt 0.825541 0.238792
vt 0.825541 0.238792
vt 0.825541 0.238792
vt 0.825541 0.238792
vt 0.825541 0.238792
vt 0.825541 0.238792
vt 0.822441 0.289173
vt 0.169033 0.297699
vt 0.169033 0.297699
vt 0.169033 0.297699
vt 0.169033 0.297699
vt 0.169033 0.297699
vt 0.169033 0.297699
vt 0.169033 0.297699
vt 0.169033 0.297699
vt 0.169033 0.297699
vt 0.172134 0.247318
vt 0.172134 0.247318
vt 0.172134 0.247318
vt 0.172134 0.247318
vt 0.172134 0.247318
vt 0.172134 0.247318
vt 0.172134 0.247318
vt 0.172134 0.247318
vt 0.172134 0.247318
vt 0.172134 0.247318
vt 0.172134 0.247318
vt 0.172134 0.247318
vt 0.172134 0.247318
vt 0.172134 0.247318
vt 0.172134 0.247318
vt 0.172134 0.247318
vt 0.172134 0.247318
vt 0.172134 0.247318
vt 0.172134 0.247318
vt 0.172134 0.247318
vt 0.169033 0.297699
vt 0.169033 0.297699
vt 0.169033 0.297699
vt 0.169033 0.297699
vt 0.169033 0.297699
vt 0.169033 0.297699
vt 0.169033 0.297699
vt 0.169033 0.297699
vt 0.169033 0.297699
vt 0.172134 0.247318
vt 0.172134 0.247318
vt 0.172134 0.247318
vt 0.172134 0.247318
vt 0.172134 0.247318
vt 0.172134 0.247318
vt 0.172134 0.247318
vt 0.172134 0.247318
vt 0.172134 0.247318
vt 0.172134 0.247318
vt 0.172134 0.247318
vt 0.172134 0.247318
vt 0.172134 0.247318
vt 0.172134 0.247318
vt 0.172134 0.247318
vt 0.172134 0.247318
vt 0.172134 0.247318
vt 0.172134 0.247318
vt 0.172134 0.247318
vt 0.172134 0.247318
vt 0.169033 0.297699
vt 0.169033 0.297699
vt 0.169033 0.297699
vt 0.169033 0.297699
vt 0.169033 0.297699
vt 0.169033 0.297699
vn 0.0000 0.0000 -1.0000
vn 1.0000 -0.0000 0.0000
vn 0.0000 1.0000 0.0000
s off
f 6/1/1 8/2/1 5/3/1
f 2/4/1 5/5/1 4/6/1
f 1/7/1 6/8/1 2/4/1
f 3/9/1 7/10/1 1/7/1
f 4/6/1 8/11/1 3/9/1
f 6/1/1 7/12/1 8/2/1
f 2/4/1 6/8/1 5/5/1
f 1/7/1 7/10/1 6/8/1
f 3/9/1 8/11/1 7/10/1
f 4/6/1 5/5/1 8/11/1
f 14/13/1 16/14/1 13/15/1
f 9/16/1 13/17/1 11/18/1
f 10/19/1 14/20/1 9/16/1
f 12/21/1 15/22/1 10/19/1
f 11/18/1 16/23/1 12/21/1
f 22/24/1 24/25/1 21/26/1
f 18/27/1 21/28/1 20/29/1
f 17/30/1 22/31/1 18/27/1
f 19/32/1 23/33/1 17/30/1
f 20/29/1 24/34/1 19/32/1
f 14/13/1 15/35/1 16/14/1
f 9/16/1 14/20/1 13/17/1
f 10/19/1 15/22/1 14/20/1
f 12/21/1 16/23/1 15/22/1
f 11/18/1 13/17/1 16/23/1
f 22/24/1 23/36/1 24/25/1
f 18/27/1 22/31/1 21/28/1
f 17/30/1 23/33/1 22/31/1
f 19/32/1 24/34/1 23/33/1
f 20/29/1 21/28/1 24/34/1
f 30/37/1 32/38/1 29/39/1
f 26/40/1 29/41/1 28/42/1
f 25/43/1 30/44/1 26/40/1
f 27/45/1 31/46/1 25/43/1
f 28/42/1 32/47/1 27/45/1
f 30/37/1 31/48/1 32/38/1
f 26/40/1 30/44/1 29/41/1
f 25/43/1 31/46/1 30/44/1
f 27/45/1 32/47/1 31/46/1
f 28/42/1 29/41/1 32/47/1
f 42/49/2 44/50/2 41/51/2
f 46/52/2 48/53/2 45/54/2
f 50/55/2 52/56/2 49/57/2
f 36/58/2 41/59/2 40/60/2
f 34/61/2 42/62/2 36/58/2
f 34/61/2 44/63/2 43/64/2
f 39/65/2 41/59/2 44/63/2
f 38/66/2 45/67/2 35/68/2
f 37/69/2 46/70/2 38/66/2
f 33/71/2 47/72/2 37/69/2
f 35/68/2 48/73/2 33/71/2
f 40/60/2 49/74/2 38/66/2
f 39/65/2 50/75/2 40/60/2
f 37/69/2 51/76/2 39/65/2
f 38/66/2 52/77/2 37/69/2
f 62/78/3 64/79/3 61/80/3
f 66/81/3 68/82/3 65/83/3
f 70/84/3 72/85/3 69/86/3
f 56/87/3 61/88/3 53/89/3
f 58/90/3 62/91/3 56/87/3
f 55/92/3 63/93/3 58/90/3
f 53/89/3 64/94/3 55/92/3
f 54/95/3 65/96/3 59/97/3
f 57/98/3 66/99/3 54/95/3
f 60/100/3 67/101/3 57/98/3
f 59/97/3 68/102/3 60/100/3
f 59/97/3 69/103/3 56/87/3
f 60/100/3 70/104/3 59/97/3
f 58/90/3 71/105/3 60/100/3
f 56/87/3 72/106/3 58/90/3
f 42/49/2 43/107/2 44/50/2
f 46/52/2 47/108/2 48/53/2
f 50/55/2 51/109/2 52/56/2
f 36/58/2 42/62/2 41/59/2
f 34/61/2 43/64/2 42/62/2
f 34/61/2 39/65/2 44/63/2
f 39/65/2 40/60/2 41/59/2
f 38/66/2 46/70/2 45/67/2
f 37/69/2 47/72/2 46/70/2
f 33/71/2 48/73/2 47/72/2
f 35/68/2 45/67/2 48/73/2
f 40/60/2 50/75/2 49/74/2
f 39/65/2 51/76/2 50/75/2
f 37/69/2 52/77/2 51/76/2
f 38/66/2 49/74/2 52/77/2
f 62/78/3 63/110/3 64/79/3
f 66/81/3 67/111/3 68/82/3
f 70/84/3 71/112/3 72/85/3
f 56/87/3 62/91/3 61/88/3
f 58/90/3 63/93/3 62/91/3
f 55/92/3 64/94/3 63/93/3
f 53/89/3 61/88/3 64/94/3
f 54/95/3 66/99/3 65/96/3
f 57/98/3 67/101/3 66/99/3
f 60/100/3 68/102/3 67/101/3
f 59/97/3 65/96/3 68/102/3
f 59/97/3 70/104/3 69/103/3
f 60/100/3 71/105/3 70/104/3
f 58/90/3 72/106/3 71/105/3
f 56/87/3 69/103/3 72/106/3
