# Blender v2.82 (sub 7) OBJ File: 'modelpastingboard.blend'
# www.blender.org
o DevFloor_Plane
v 0.500000 -0.500000 -0.000000
v -0.500000 -0.500000 -0.000000
v 0.500000 0.500000 0.000000
v 0.000000 -0.500000 -0.000000
v -0.500000 0.500000 0.000000
v 0.000000 0.500000 0.000000
v 0.500000 -0.000000 0.000000
v -0.500000 -0.000000 0.000000
v 0.000000 -0.000000 0.000000
v -0.014885 -0.014885 -0.000000
v -0.014885 -0.485115 -0.000000
v -0.485115 -0.485115 -0.000000
v -0.485115 -0.014885 -0.000000
v 0.485115 -0.014885 -0.000000
v 0.485115 -0.485115 -0.000000
v 0.014885 -0.485115 -0.000000
v 0.014885 -0.014885 -0.000000
v 0.485115 0.485115 0.000000
v 0.485115 0.014885 0.000000
v 0.014885 0.014885 0.000000
v 0.014885 0.485115 0.000000
v -0.014885 0.485115 0.000000
v -0.014885 0.014885 0.000000
v -0.485115 0.014885 0.000000
v -0.485115 0.485115 0.000000
vt 0.822441 0.289173
vt 0.822441 0.289173
vt 0.822441 0.289173
vt 0.822441 0.289173
vt 0.822441 0.289173
vt 0.822441 0.289173
vt 0.822441 0.289173
vt 0.822441 0.289173
vt 0.822441 0.289173
vt 0.822441 0.289173
vt 0.822441 0.289173
vt 0.822441 0.289173
vt 0.825541 0.238792
vt 0.825541 0.238792
vt 0.825541 0.238792
vt 0.825541 0.238792
vt 0.825541 0.238792
vt 0.825541 0.238792
vt 0.825541 0.238792
vt 0.825541 0.238792
vt 0.825541 0.238792
vt 0.825541 0.238792
vt 0.825541 0.238792
vt 0.825541 0.238792
vt 0.825541 0.238792
vt 0.825541 0.238792
vt 0.825541 0.238792
vt 0.825541 0.238792
vt 0.825541 0.238792
vt 0.825541 0.238792
vt 0.825541 0.238792
vt 0.825541 0.238792
vt 0.825541 0.238792
vt 0.825541 0.238792
vt 0.825541 0.238792
vt 0.825541 0.238792
vt 0.825541 0.238792
vt 0.822441 0.289173
vt 0.822441 0.289173
vt 0.822441 0.289173
vt 0.822441 0.289173
vn 0.0000 0.0000 -1.0000
s off
f 11/1/1 13/2/1 10/3/1
f 15/4/1 17/5/1 14/6/1
f 19/7/1 21/8/1 18/9/1
f 23/10/1 25/11/1 22/12/1
f 4/13/1 10/14/1 9/15/1
f 2/16/1 11/17/1 4/13/1
f 8/18/1 12/19/1 2/16/1
f 9/15/1 13/20/1 8/18/1
f 1/21/1 14/22/1 7/23/1
f 4/13/1 15/24/1 1/21/1
f 9/15/1 16/25/1 4/13/1
f 7/23/1 17/26/1 9/15/1
f 7/23/1 18/27/1 3/28/1
f 9/15/1 19/29/1 7/23/1
f 6/30/1 20/31/1 9/15/1
f 3/28/1 21/32/1 6/30/1
f 9/15/1 22/33/1 6/30/1
f 8/18/1 23/34/1 9/15/1
f 5/35/1 24/36/1 8/18/1
f 6/30/1 25/37/1 5/35/1
f 11/1/1 12/38/1 13/2/1
f 15/4/1 16/39/1 17/5/1
f 19/7/1 20/40/1 21/8/1
f 23/10/1 24/41/1 25/11/1
f 4/13/1 11/17/1 10/14/1
f 2/16/1 12/19/1 11/17/1
f 8/18/1 13/20/1 12/19/1
f 9/15/1 10/14/1 13/20/1
f 1/21/1 15/24/1 14/22/1
f 4/13/1 16/25/1 15/24/1
f 9/15/1 17/26/1 16/25/1
f 7/23/1 14/22/1 17/26/1
f 7/23/1 19/29/1 18/27/1
f 9/15/1 20/31/1 19/29/1
f 6/30/1 21/32/1 20/31/1
f 3/28/1 18/27/1 21/32/1
f 9/15/1 23/34/1 22/33/1
f 8/18/1 24/36/1 23/34/1
f 5/35/1 25/37/1 24/36/1
f 6/30/1 22/33/1 25/37/1
